<?xml version="1.0" encoding="utf-8"?>

<svg version="1.1" id="Layer_1" xmlns="http://www.w3.org/2000/svg" xmlns:xlink="http://www.w3.org/1999/xlink" x="0px" y="0px"
	 viewBox="0 0 61.3 70.1" style="enable-background:new 0 0 61.3 70.1;" xml:space="preserve">

<g>
	<path  d="M59.1,8.8H39.4c0-4.8-3.9-8.8-8.8-8.8s-8.8,3.9-8.8,8.8H2.2C1,8.8,0,9.7,0,10.9v56.9c0,1.2,1,2.2,2.2,2.2h56.9
		c1.2,0,2.2-1,2.2-2.2V10.9C61.3,9.7,60.3,8.8,59.1,8.8z M30.7,4.4c2.4,0,4.4,2,4.4,4.4s-2,4.4-4.4,4.4c-2.4,0-4.4-2-4.4-4.4
		S28.2,4.4,30.7,4.4z M56.9,65.7H4.4V13.1h8.8v6.6c0,1.2,1,2.2,2.2,2.2H46c1.2,0,2.2-1,2.2-2.2v-6.6h8.8V65.7z"/>
	<path  d="M26.3,54.5l-14-16.2l4-4l10,7.9l18.8-16.6l4,4L26.3,54.5z"/>
</g>
</svg>
