<?xml version="1.0" encoding="utf-8"?>
<svg version="1.1" id="Layer_1" xmlns="http://www.w3.org/2000/svg" xmlns:xlink="http://www.w3.org/1999/xlink" x="0px" y="0px"
	 viewBox="0 0 81.6 76.8" style="enable-background:new 0 0 81.6 76.8;" xml:space="preserve">

<g>
	<path d="M59.4,33.3v-5.4c0-4.5-3.7-8.2-8.2-8.2h-4.7c-1.9,0-3.5-1.6-3.5-3.5v-5.4c1.9-0.9,3.3-2.8,3.3-5.1
		c0-3.1-2.5-5.6-5.6-5.6C37.5,0,35,2.5,35,5.6c0,2.3,1.4,4.2,3.3,5.1v5.4c0,1.9-1.6,3.5-3.5,3.5h-4.7c-4.5,0-8.2,3.7-8.2,8.2v5.4
		c-1.9,0.9-3.3,2.8-3.3,5.1c0,3.1,2.5,5.6,5.6,5.6s5.6-2.5,5.6-5.6c0-2.3-1.4-4.2-3.3-5.1v-5.4c0-1.9,1.6-3.5,3.5-3.5h4.7
		c1.3,0,2.4-0.3,3.5-0.8v9.8c-1.9,0.9-3.3,2.8-3.3,5.1c0,3.1,2.5,5.6,5.6,5.6c3.1,0,5.6-2.5,5.6-5.6c0-2.3-1.4-4.2-3.3-5.1v-9.8
		c1.1,0.5,2.3,0.8,3.5,0.8h4.7c1.9,0,3.5,1.6,3.5,3.5v5.4c-1.9,0.9-3.3,2.8-3.3,5.1c0,3.1,2.5,5.6,5.6,5.6c3.1,0,5.6-2.5,5.6-5.6
		C62.7,36.2,61.3,34.2,59.4,33.3z M40.7,2.4c1.8,0,3.2,1.5,3.2,3.2c0,1.8-1.5,3.2-3.2,3.2c-1.8,0-3.2-1.5-3.2-3.2
		C37.4,3.8,38.9,2.4,40.7,2.4z M24.2,41.7c-1.8,0-3.2-1.5-3.2-3.2c0-1.8,1.5-3.2,3.2-3.2c1.8,0,3.2,1.5,3.2,3.2
		C27.5,40.2,26,41.7,24.2,41.7z M40.7,41.7c-1.8,0-3.2-1.5-3.2-3.2c0-1.8,1.5-3.2,3.2-3.2c1.8,0,3.2,1.5,3.2,3.2
		C43.9,40.2,42.4,41.7,40.7,41.7z M57.1,41.7c-1.8,0-3.2-1.5-3.2-3.2c0-1.8,1.5-3.2,3.2-3.2c1.8,0,3.2,1.5,3.2,3.2
		C60.3,40.2,58.9,41.7,57.1,41.7z"/>
	<path d="M76,65.6c-2.3,0-4.2,1.4-5.1,3.3h-7.8c-1.9,0-3.5-1.6-3.5-3.5v-9c1.1,0.5,2.3,0.8,3.5,0.8h7.8
		c0.9,1.9,2.8,3.3,5.1,3.3c3.1,0,5.6-2.5,5.6-5.6c0-3.1-2.5-5.6-5.6-5.6c-2.3,0-4.2,1.4-5.1,3.3h-7.8c-1.9,0-3.5-1.6-3.5-3.5v-5.4
		c1.9-0.9,3.3-2.8,3.3-5.1c0-3.1-2.5-5.6-5.6-5.6s-5.6,2.5-5.6,5.6c0,2.3,1.4,4.2,3.3,5.1v21.9c0,4.5,3.7,8.2,8.2,8.2h7.8
		c0.9,1.9,2.8,3.3,5.1,3.3c3.1,0,5.6-2.5,5.6-5.6C81.6,68.1,79.1,65.6,76,65.6z M76,51.6c1.8,0,3.2,1.5,3.2,3.2
		c0,1.8-1.5,3.2-3.2,3.2c-1.8,0-3.2-1.5-3.2-3.2C72.8,53,74.2,51.6,76,51.6z M57.3,35.2c1.8,0,3.2,1.5,3.2,3.2
		c0,1.8-1.5,3.2-3.2,3.2S54,40.2,54,38.4C54,36.6,55.5,35.2,57.3,35.2z M76,74.5c-1.8,0-3.2-1.5-3.2-3.2c0-1.8,1.5-3.2,3.2-3.2
		c1.8,0,3.2,1.5,3.2,3.2C79.2,73,77.8,74.5,76,74.5z"/>
	<path d="M0,71.2c0,3.1,2.5,5.6,5.6,5.6c2.3,0,4.2-1.4,5.1-3.3h7.8c4.5,0,8.2-3.7,8.2-8.2V43.5c1.9-0.9,3.3-2.8,3.3-5.1
		c0-3.1-2.5-5.6-5.6-5.6s-5.6,2.5-5.6,5.6c0,2.3,1.3,4.2,3.3,5.1v5.4c0,1.9-1.6,3.5-3.5,3.5h-7.8c-0.9-1.9-2.8-3.3-5.1-3.3
		c-3.1,0-5.6,2.5-5.6,5.6c0,3.1,2.5,5.6,5.6,5.6c2.3,0,4.2-1.3,5.1-3.3h7.8c1.3,0,2.4-0.3,3.5-0.8v9c0,1.9-1.6,3.5-3.5,3.5h-7.8
		c-0.9-1.9-2.8-3.3-5.1-3.3C2.5,65.6,0,68.1,0,71.2z M8.9,54.8c0,1.8-1.5,3.2-3.2,3.2c-1.8,0-3.2-1.5-3.2-3.2c0-1.8,1.5-3.2,3.2-3.2
		C7.4,51.6,8.9,53,8.9,54.8z M27.6,38.4c0,1.8-1.5,3.2-3.2,3.2s-3.2-1.5-3.2-3.2c0-1.8,1.5-3.2,3.2-3.2
		C26.2,35.2,27.6,36.6,27.6,38.4z M2.4,71.2c0-1.8,1.5-3.2,3.2-3.2c1.8,0,3.2,1.5,3.2,3.2c0,1.8-1.5,3.2-3.2,3.2
		C3.8,74.5,2.4,73,2.4,71.2z"/>
</g>
</svg>
