<?xml version="1.0" encoding="utf-8"?>
<svg version="1.1" id="Layer_1" xmlns="http://www.w3.org/2000/svg" xmlns:xlink="http://www.w3.org/1999/xlink" x="0px" y="0px"
	 viewBox="0 0 100 68" style="enable-background:new 0 0 100 68;" xml:space="preserve">

<g>
	<path d="M22.2,27.2C22.2,27.2,22.2,27.2,22.2,27.2c1.2,0,2-1,2-2.1c-0.2-4.9,1.7-9.7,5.1-13.1c6.8-6.8,18-6.8,24.8,0
		c2.6,2.6,4.3,5.8,4.9,9.4c0.2,1.1,1.2,1.8,2.3,1.6c1.1-0.2,1.8-1.2,1.6-2.3c-0.8-4.4-2.8-8.4-6-11.5c-8.4-8.4-22.1-8.4-30.5,0
		c-4.2,4.2-6.5,10.1-6.3,16.1C20.2,26.4,21.1,27.2,22.2,27.2z"/>
	<path  d="M64.8,38.3c-1.3-1.3-3.6-1.3-5,0L59.1,39l-0.8-0.8c1.4-1.7,2.6-3.6,3.4-5.7c0.4-1-0.1-2.2-1.1-2.6
		c-1-0.4-2.2,0.1-2.6,1.1c-0.9,2.2-2.2,4.2-3.9,5.9c-6.8,6.8-18,6.8-24.8,0c-0.7-0.7-1.4-1.5-2-2.4c-0.6-0.9-1.9-1.1-2.8-0.5
		c-0.9,0.6-1.1,1.9-0.5,2.8c0.7,1,1.5,2,2.4,2.9c4.2,4.2,9.7,6.3,15.2,6.3c4.9,0,9.8-1.7,13.7-5l0.8,0.8l-0.7,0.7
		c-0.7,0.7-1,1.5-1,2.5s0.4,1.8,1,2.5l19.4,19.4c0.7,0.7,1.6,1,2.5,1c0.9,0,1.8-0.4,2.5-1l4.3-4.3c1.4-1.4,1.4-3.6,0-5L64.8,38.3z
		 M77.4,63.8L58.7,45.1l3.6-3.6l18.7,18.7L77.4,63.8z"/>
	<path  d="M92.4,0c-4.2,0-7.6,3.4-7.6,7.6c0,1.9,0.7,3.6,1.8,4.9l-6.4,9c-0.8-0.3-1.6-0.4-2.5-0.4
		c-3.4,0-6.3,2.2-7.3,5.3l-19.1-3.6c-0.8-4.6-4.8-8-9.6-8c-5.4,0-9.7,4.4-9.7,9.7c0,0.3,0,0.5,0,0.8l-18.6,8.2
		c-1.4-1.6-3.5-2.7-5.8-2.7c-4.2,0-7.6,3.4-7.6,7.6C0,42.5,3.4,46,7.6,46c4.2,0,7.6-3.4,7.6-7.6c0-0.5,0-0.9-0.1-1.3l18-7.9
		c1.6,3,4.9,5.1,8.5,5.1c4.5,0,8.4-3.1,9.4-7.4l19,3.6c0.8,3.4,3.8,6,7.5,6c4.2,0,7.6-3.4,7.6-7.6c0-1.9-0.7-3.7-1.9-5l6.4-8.9
		c0.8,0.3,1.7,0.5,2.6,0.5c4.2,0,7.6-3.4,7.6-7.6C100,3.4,96.6,0,92.4,0z M7.6,42c-2,0-3.6-1.6-3.6-3.6s1.6-3.6,3.6-3.6
		c2,0,3.6,1.6,3.6,3.6S9.7,42,7.6,42z M41.7,30.2c-3.2,0-5.7-2.6-5.7-5.7s2.6-5.7,5.7-5.7s5.7,2.6,5.7,5.7S44.9,30.2,41.7,30.2z
		 M77.6,32.4c-2,0-3.6-1.6-3.6-3.6c0-2,1.6-3.6,3.6-3.6s3.6,1.6,3.6,3.6C81.3,30.8,79.6,32.4,77.6,32.4z M92.4,11.3
		c-2,0-3.6-1.6-3.6-3.6S90.3,4,92.4,4S96,5.6,96,7.6S94.4,11.3,92.4,11.3z"/>
</g>
</svg>
