<?xml version="1.0" encoding="utf-8"?>
<svg version="1.1" id="Layer_1" xmlns="http://www.w3.org/2000/svg" xmlns:xlink="http://www.w3.org/1999/xlink" x="0px" y="0px"
	 viewBox="0 0 76.4 76.4" style="enable-background:new 0 0 76.4 76.4;" xml:space="preserve">

<path  d="M76.4,9.5H0V0h76.4V9.5z M47.7,28.6H0v-9.5h47.7V28.6z M76.4,47.7H0v-9.5h76.4V47.7z M0,71.6
	c0-2.6,2.1-4.8,4.8-4.8s4.8,2.1,4.8,4.8c0,2.6-2.1,4.8-4.8,4.8S0,74.2,0,71.6z M38.2,71.6c0-2.6,2.1-4.8,4.8-4.8
	c2.6,0,4.8,2.1,4.8,4.8c0,2.6-2.1,4.8-4.8,4.8C40.3,76.4,38.2,74.2,38.2,71.6z M19.1,71.6c0-2.6,2.1-4.8,4.8-4.8s4.8,2.1,4.8,4.8
	c0,2.6-2.1,4.8-4.8,4.8S19.1,74.2,19.1,71.6z"/>
</svg>
