<?xml version="1.0" encoding="utf-8"?>
<!-- Generator: Adobe Illustrator 27.6.1, SVG Export Plug-In . SVG Version: 6.00 Build 0)  -->
<svg version="1.1" id="Layer_1" xmlns="http://www.w3.org/2000/svg" xmlns:xlink="http://www.w3.org/1999/xlink" x="0px" y="0px"
	 viewBox="0 0 800 560" style="enable-background:new 0 0 800 560;" xml:space="preserve">
<style type="text/css">
	.st0{fill-rule:evenodd;clip-rule:evenodd;}
</style>
<path d="M515.7,281.5c2.9-4.4,4.4-10.7,4.4-18.6c0-7.9-1.5-14.2-4.4-18.6c-2.9-4.3-7.3-6.4-13.3-6.4c-6.1,0-10.4,2.1-13.3,6.4
	c-2.9,4.4-4.3,10.6-4.3,18.6c0,7.9,1.5,14.2,4.3,18.6c2.8,4.4,7.2,6.5,13.3,6.5C508.5,288,512.8,285.9,515.7,281.5z"/>
<path d="M674,244.3c-1.9,2.9-3.1,6.5-3.7,10.9h33.1c-0.3-4.2-1.2-8.1-3.1-10.9c-2.9-4.3-6.9-6.7-13-6.7
	C681.2,237.6,676.9,240,674,244.3z"/>
<path d="M302.7,244.3c-1.9,2.9-3.1,6.5-3.7,10.9H332c-0.3-4.2-1.2-8.1-3.1-10.9c-2.9-4.3-6.9-6.7-13-6.7
	C309.8,237.6,305.5,240,302.7,244.3z"/>
<path d="M196,282.9c0.6,0.9,0.9,1.3,2.7,2.7c0,0,4.2,3.3,13.6,2.7c6.6-0.4,12.5-1.7,12.5-1.7v-21.1c0,0-5.9-1-12.6-1.1
	c-9.5-0.1-13.5,3.4-13.4,3.3c-2.8,2-4.1,4.9-4.1,9C194.6,279.4,195.1,281.4,196,282.9z"/>
<path class="st0" d="M434.4,17.5c-39.7,0-75.6,16.7-101.4,43.6C304.5,24,259.7,0,209.4,0C123.6,0,54,69.5,54,155.2
	c0,21.9,4.6,42.8,12.8,61.7C26.9,240.2,0,283.8,0,333.7c0,74.5,59.8,134.9,133.5,134.9c9.4,0,18.6-1,27.4-2.9
	c20.3,55,73,94.2,135,94.2c59.5,0,110.5-36.1,132.4-87.6c16.7,8.1,35.4,12.7,55.2,12.7c47.3,0,88.4-26,110-64.6
	c11.2,2.3,22.6,3.4,34,3.4c95.2,0,172.5-77.9,172.5-174c0-96.1-77.2-174-172.5-174c-24.8,0-48.4,5.3-69.8,14.8
	C533.2,47,487.2,17.5,434.4,17.5z M472.2,196c1.8,0.3,3.1,0.6,4.6,1.1c0.3,0.1,1.2,0.6,0.9,1.6l-3.5,9.7c-0.3,0.7-0.5,1.2-2,0.7
	c-0.4-0.1-0.9-0.3-2.4-0.6c-1-0.2-2.4-0.4-3.8-0.4c-1.8,0-3.5,0.2-5,0.7c-1.4,0.5-2.7,1.3-3.9,2.4c-1.2,1.2-2.5,2.9-3.2,4.9
	c-1.4,4.2-2.1,8.6-2.4,10l-0.1,0.4h14.8c1.2,0,1.6,0.6,1.5,1.5l-1.7,9.6c-0.3,1.4-1.6,1.4-1.6,1.4h-15.3l-10.5,59.1
	c-1.1,6.1-2.5,11.3-4.1,15.6c-1.6,4.3-3.3,7.4-6,10.4c-2.5,2.8-5.3,4.8-8.6,6c-3.2,1.2-7.1,1.8-11.4,1.8c-2,0-4.2,0-6.8-0.6
	c-1.9-0.4-2.9-0.8-4.2-1.2c-0.6-0.2-1-0.9-0.7-1.9c0.3-0.9,3.1-8.4,3.4-9.4c0.5-1.2,1.7-0.7,1.7-0.7c0.8,0.4,1.4,0.6,2.5,0.8
	c1.1,0.2,2.6,0.4,3.7,0.4c2,0,3.9-0.3,5.5-0.8c1.9-0.6,3.1-1.8,4.2-3.3c1.2-1.6,2.2-3.7,3.2-6.6c1-2.9,2-6.8,2.8-11.4l10.4-58h-10.2
	c-1.2,0-1.6-0.6-1.5-1.5l1.7-9.7c0.3-1.4,1.6-1.3,1.6-1.3h10.5l0.6-3.1c1.6-9.3,4.7-16.4,9.3-21c4.6-4.7,11.2-7,19.6-7
	C468.3,195.5,470.4,195.7,472.2,196z M268.3,298.8c0.8,0,1.3-0.6,1.3-1.4v-99c0-0.8-0.6-1.4-1.3-1.4H256c-0.8,0-1.3,0.6-1.3,1.4v99
	c0,0.8,0.5,1.4,1.3,1.4H268.3z M116.1,292.1c-0.2-0.2-0.6-0.6-0.2-1.7l3.2-9c0.5-1.5,1.7-1,2.2-0.7c0.4,0.2,0.7,0.4,1.1,0.7
	c0.5,0.3,1,0.6,1.6,1c9.5,6,18.4,6.1,21.1,6.1c7.1,0,11.6-3.8,11.6-8.9v-0.3c0-5.6-6.8-7.6-14.7-10.1l-1.8-0.5
	c-10.8-3.1-22.4-7.5-22.4-21.3v-0.3c0-13,10.5-22.1,25.5-22.1l1.6,0c8.8,0,17.3,2.6,23.5,6.3c0.6,0.3,1.1,1,0.8,1.8
	c-0.3,0.8-3,8.2-3.3,9c-0.6,1.5-2.2,0.5-2.2,0.5c-5.4-3-13.8-5.3-20.9-5.3c-6.4,0-10.5,3.4-10.5,8v0.3c0,5.4,7,7.6,15.1,10.3
	l1.4,0.5c10.8,3.4,22.3,8.1,22.3,21.1v0.3c0,14.1-10.2,22.8-26.6,22.8c-8.1,0-15.8-1.3-23.9-5.6l-1-0.5c-1.2-0.7-2.4-1.4-3.6-2.2
	C116.2,292.2,116.1,292.1,116.1,292.1z M356.3,292.1c-0.2-0.2-0.6-0.6-0.2-1.7l3.2-9c0.5-1.5,1.9-0.9,2.2-0.7l0.5,0.4
	c0.6,0.4,1.3,0.8,2.2,1.3c9.5,6,18.4,6.1,21.1,6.1c7.1,0,11.6-3.8,11.6-8.9v-0.3c0-5.6-6.8-7.6-14.7-10.1l-1.8-0.5
	c-10.8-3.1-22.4-7.5-22.4-21.3v-0.3c0-13,10.5-22.1,25.5-22.1l1.6,0c8.8,0,17.3,2.6,23.5,6.3c0.6,0.3,1.1,1,0.8,1.8
	c-0.3,0.8-3,8.2-3.3,9c-0.6,1.5-2.2,0.5-2.2,0.5c-5.4-3-13.8-5.3-20.9-5.3c-6.4,0-10.5,3.4-10.5,8v0.3c0,5.4,7,7.6,15.1,10.3
	l1.4,0.5c10.8,3.4,22.3,8.1,22.3,21.1v0.3c0,14.1-10.2,22.8-26.6,22.8c-8.1,0-15.8-1.3-23.9-5.6l-1-0.5c-1.2-0.7-2.4-1.3-3.6-2.2
	C356.4,292.2,356.4,292.1,356.3,292.1C356.4,292.1,356.4,292.1,356.3,292.1z M527.6,236.2c2.8,3.3,4.9,7.3,6.2,11.9
	c1.3,4.5,2,9.5,2,14.7c0,5.2-0.7,10.2-2,14.7c-1.3,4.5-3.4,8.6-6.2,11.9c-2.8,3.3-6.3,6-10.5,7.9c-4.2,1.9-9.1,2.9-14.7,2.9
	c-5.6,0-10.5-1-14.7-2.9c-4.2-1.9-7.7-4.6-10.5-7.9c-2.8-3.3-4.9-7.4-6.2-11.9c-1.3-4.5-2-9.5-2-14.7c0-5.3,0.7-10.2,2-14.7
	c1.4-4.5,3.5-8.5,6.2-11.9c2.8-3.3,6.3-6,10.5-8c4.2-1.9,9.1-2.9,14.7-2.9c5.5,0,10.5,1,14.7,2.9
	C521.3,230.2,524.8,232.9,527.6,236.2z M644.6,285c0,0,1.3-0.5,1.7,0.8l3.4,9.3c0.4,1.2-0.6,1.6-0.6,1.6c-5.2,2-12.4,3.5-19.4,3.5
	c-11.9,0-21-3.4-27-10.2c-6.1-6.7-9.1-15.9-9.1-27.3c0-5.3,0.7-10.2,2.2-14.7c1.5-4.5,3.7-8.5,6.7-11.9c2.9-3.4,6.7-6,11-8
	c4.4-2,9.5-2.9,15.3-2.9c3.9,0,7.3,0.2,10.3,0.7c3.2,0.5,7.4,1.6,9.1,2.3c0.3,0.1,1.2,0.6,0.8,1.6c-0.9,2.5-1.5,4.3-2.3,6.3
	l-1.1,3.1c-0.5,1.4-1.6,0.9-1.6,0.9c-4.5-1.4-8.8-2.1-14.5-2.1c-6.8,0-11.9,2.3-15.2,6.7c-3.4,4.4-5.2,10.3-5.3,18
	c0,8.5,2.1,14.8,5.9,18.7c3.8,3.9,9,5.9,15.7,5.9c2.7,0,5.2-0.2,7.5-0.5C640.4,286.5,642.6,285.8,644.6,285z M710.5,234.7
	c1.9,2,4.8,6.5,5.9,10.8c2.8,9.8,1.6,18.3,1.4,19.8l0,0.2c-0.1,1.2-1.3,1.2-1.3,1.2l-46.4,0c0.3,7,2,12,5.4,15.4
	c3.3,3.3,8.7,5.4,15.9,5.4c10,0,14.8-1.8,18.1-3.1l0.9-0.3c0,0,1.3-0.5,1.7,0.8l3,8.5c0.6,1.4,0.1,1.9-0.4,2.2
	c-2.9,1.6-10,4.6-23.4,4.6c-6.5,0-12.2-0.9-16.8-2.7c-4.7-1.8-8.6-4.4-11.7-7.7c-3.1-3.3-5.3-7.3-6.7-11.8
	c-1.4-4.5-2.1-9.5-2.1-14.8c0-5.3,0.7-10.2,2-14.8c1.3-4.6,3.5-8.6,6.3-12c2.8-3.4,6.4-6.1,10.7-8.1c4.3-2,9.5-3,15.3-3
	c5,0,9.5,1.1,13.3,2.7C704.5,229.2,707.5,231.5,710.5,234.7z M339.1,234.7c1.9,2,4.8,6.5,5.9,10.8c2.8,9.7,1.6,18.2,1.4,19.8l0,0.2
	c-0.1,1.2-1.3,1.2-1.3,1.2l-46.4,0c0.3,7,2,12,5.4,15.4c3.3,3.3,8.7,5.4,15.9,5.4c10.1,0,14.9-1.8,18.1-3.1l0.9-0.3
	c0,0,1.3-0.5,1.8,0.8l3,8.5c0.6,1.4,0.1,1.9-0.4,2.2c-2.9,1.6-10,4.6-23.4,4.6c-6.5,0-12.2-0.9-16.8-2.7c-4.7-1.8-8.6-4.4-11.7-7.7
	c-3.1-3.3-5.3-7.3-6.7-11.8c-1.4-4.5-2.1-9.5-2.1-14.8c0-5.3,0.7-10.2,2-14.8c1.3-4.6,3.5-8.6,6.3-12c2.8-3.4,6.4-6.1,10.7-8.1
	c4.3-2,9.5-3,15.3-3c5,0,9.5,1.1,13.3,2.7C333.2,229.2,336.1,231.5,339.1,234.7z M209.9,252.8c2.9,0,5.4,0.1,7.2,0.2
	c0,0,3.7,0.3,7.6,0.9v-2c0-6.2-1.3-9.1-3.8-11c-2.6-2-6.4-3-11.5-3c0,0-11.3-0.1-20.2,4.7c-0.4,0.2-0.8,0.4-0.8,0.4
	s-1.1,0.4-1.5-0.8l-3.3-8.8c-0.5-1.3,0.4-1.8,0.4-1.8c4.2-3.3,14.3-5.2,14.3-5.2c3.4-0.7,8.9-1.2,12.4-1.2c9.3,0,16.4,2.2,21.3,6.4
	c4.9,4.3,7.4,11.2,7.4,20.5l0,42.4c0,0,0.1,1.2-1.1,1.5c-1.1,0.3-2.2,0.6-3.2,0.8c-1.5,0.4-7.1,1.5-11.7,2.3
	c-4.6,0.8-9.3,1.2-14.1,1.2c-4.5,0-8.6-0.4-12.3-1.3c-3.7-0.8-6.9-2.2-9.4-4.1c-2.6-1.9-4.6-4.3-6.1-7.2c-1.4-2.9-2.1-6.5-2.1-10.6
	c0-4,0.8-7.6,2.5-10.7c1.6-3,3.9-5.6,6.7-7.6c2.8-2,6.1-3.5,9.7-4.5C202.1,253.3,205.9,252.8,209.9,252.8z M590.4,227.5
	c0.3,0.1,1,0.6,0.7,1.7c-0.4,1.3-2.7,7.6-3.5,9.7c-0.3,0.8-0.8,1.4-1.7,1.3c0,0-2.7-0.6-5.1-0.6c-1.7,0-4.1,0.2-6.2,0.9
	c-2.1,0.6-4,1.8-5.7,3.4c-1.7,1.7-3.1,4-4.1,6.8c-1,2.9-1.5,7.5-1.5,12.2v34.6c0,0.4-0.1,0.7-0.4,1c-0.3,0.3-0.6,0.4-1,0.4h-12.2
	c-0.8,0-1.4-0.6-1.4-1.4v-69.2c0-0.8,0.6-1.4,1.3-1.4h11.9c0.8,0,1.3,0.6,1.3,1.4v5.6c1.8-2.4,5-4.5,7.8-5.8c2.9-1.3,6.1-2.3,12-1.9
	C585.7,226.3,589.6,227.2,590.4,227.5z"/>
</svg>
