<?xml version="1.0" encoding="utf-8"?>
<svg version="1.1" id="Layer_1" xmlns="http://www.w3.org/2000/svg" xmlns:xlink="http://www.w3.org/1999/xlink" x="0px" y="0px"
	 viewBox="0 0 175.2 69.9" style="enable-background:new 0 0 175.2 69.9;" xml:space="preserve">

<g>
	<path d="M43.6,8.7h-8.7V4.4c0-2.4-2-4.4-4.4-4.4h-8.7c-2.4,0-4.4,2-4.4,4.4v4.4H8.7v8.7h34.9V8.7z M30.5,8.7h-8.7V4.4
		c0,0,0,0,0,0h8.7c0,0,0,0,0,0L30.5,8.7L30.5,8.7z M52.3,21.8V10.9c0-1.2-1-2.2-2.2-2.2h-4.4v4.4H48v8.7H34.9L21.8,34.9v17.4H4.4
		V13.1h2.2V8.7H2.2C1,8.7,0,9.7,0,10.9v43.6c0,1.2,1,2.2,2.2,2.2h19.6v13.1h43.6v-48H52.3z M34.9,28v6.9H28L34.9,28z M61,65.4H26.2
		V39.2h13.1V26.2H61V65.4z"/>
	<path d="M96.4,52.3l10-10c0.8-0.8,0.8-2,0-2.8l-10-10c-0.8-0.8-2-0.8-2.8,0c-0.8,0.8-0.8,2,0,2.8l6.6,6.6H81
		c-1.1,0-2,0.9-2,2s0.9,2,2,2h19.2l-6.6,6.6c-0.4,0.4-0.6,0.9-0.6,1.4c0,0.5,0.2,1,0.6,1.4C94.3,53.1,95.6,53.1,96.4,52.3z"/>
	<g>
		<path  d="M172.7,23.9c-1.3-1.8-3.1-3.8-5.1-5.8c-2-2-4-3.8-5.8-5.1c-3-2.2-4.4-2.4-5.3-2.4h-28.7
			c-2.6,0-4.6,2.1-4.6,4.6v50.1c0,2.6,2.1,4.6,4.6,4.6h42.6c2.6,0,4.6-2.1,4.6-4.6V29.1C175.2,28.3,174.9,26.8,172.7,23.9z
			 M165.1,20.7c1.8,1.8,3.2,3.4,4.2,4.7h-8.9v-8.9C161.7,17.5,163.3,18.9,165.1,20.7z M171.5,65.3c0,0.5-0.4,0.9-0.9,0.9h-42.6
			c-0.5,0-0.9-0.4-0.9-0.9V15.2c0-0.5,0.4-0.9,0.9-0.9c0,0,28.7,0,28.7,0v13c0,1,0.8,1.9,1.9,1.9h13V65.3z"/>
		<path  d="M162.2,58.8h-26c-1,0-1.9-0.8-1.9-1.9s0.8-1.9,1.9-1.9h26c1,0,1.9,0.8,1.9,1.9S163.2,58.8,162.2,58.8z"/>
		<path  d="M162.2,51.4h-26c-1,0-1.9-0.8-1.9-1.9c0-1,0.8-1.9,1.9-1.9h26c1,0,1.9,0.8,1.9,1.9
			C164,50.5,163.2,51.4,162.2,51.4z"/>
		<path  d="M162.2,44h-26c-1,0-1.9-0.8-1.9-1.9s0.8-1.9,1.9-1.9h26c1,0,1.9,0.8,1.9,1.9S163.2,44,162.2,44z"/>
	</g>
</g>
</svg>
