<?xml version="1.0" encoding="utf-8"?>
<svg version="1.1" id="Layer_1" xmlns="http://www.w3.org/2000/svg" xmlns:xlink="http://www.w3.org/1999/xlink" x="0px" y="0px"
	 viewBox="0 0 81.6 76.8" style="enable-background:new 0 0 81.6 76.8;" xml:space="preserve">

<path  d="M35.7,7.8V6.5c0-2.1-1.7-3.8-3.8-3.8H19.1c-2.1,0-3.8,1.7-3.8,3.8v1.3H0V18h15.3v1.3c0,2.1,1.7,3.8,3.8,3.8
	h12.8c2.1,0,3.8-1.7,3.8-3.8V18h45.9V7.8H35.7z M20.4,18V7.8h10.2V18H20.4z M66.3,32c0-2.1-1.7-3.8-3.8-3.8H49.7
	c-2.1,0-3.8,1.7-3.8,3.8v1.3H0v10.2h45.9v1.3c0,2.1,1.7,3.8,3.8,3.8h12.8c2.1,0,3.8-1.7,3.8-3.8v-1.3h15.3V33.3H66.3V32z M51,43.5
	V33.3h10.2v10.2H51z M35.7,57.6c0-2.1-1.7-3.8-3.8-3.8H19.1c-2.1,0-3.8,1.7-3.8,3.8v1.3H0V69h15.3v1.3c0,2.1,1.7,3.8,3.8,3.8h12.8
	c2.1,0,3.8-1.7,3.8-3.8V69h45.9V58.8H35.7V57.6z M20.4,69V58.8h10.2V69H20.4z"/>
</svg>
