<?xml version="1.0" encoding="utf-8"?>
<svg version="1.1" id="Layer_1" xmlns="http://www.w3.org/2000/svg" xmlns:xlink="http://www.w3.org/1999/xlink" x="0px" y="0px"
	 viewBox="0 0 77 82.1" style="enable-background:new 0 0 77 82.1;" xml:space="preserve">

<g>
	<g>
		<path  d="M56.3,8.8c-6.8,0-12.2,5.4-12.2,11.9c0,6.7,5.4,12.2,12.1,12.2c0,0,0.1,0,0.1,0c6.7,0,12.2-5.4,12.2-12.1
			c0,0,0-0.1,0-0.1c0-2.4-1-4.7-2-6.4L62.4,18c0.3,0.7,0.7,1.7,0.7,2.7c0,4.1-3.1,7.1-6.8,7.1c-4.1,0-7.1-3-7.1-7.1
			c0-3.7,3.1-6.8,7.1-6.8c1,0,2,0.3,3.1,0.7l3.7-3.7C61.1,9.5,58.7,8.8,56.3,8.8L56.3,8.8z M70.2,1.7l-4.4,4.4
			c-0.3,0.3-0.7,0.7-0.7,1.3c0,0,0,0,0,0l0.3,2.2c0,0.1,0,0.1-0.1,0.2l-7.7,7.6c-0.1,0.1-0.1,0.1-0.2,0.1c-0.4-0.1-0.9-0.3-1.2-0.3
			c-1,0-2,0.3-2.7,1c-1.4,1.4-1.4,3.7,0,5.1c0.7,0.7,1.7,1,2.7,1c0.7,0,1.7-0.3,2.4-1c1-1,1.3-2.6,0.7-3.9c0-0.1,0-0.2,0-0.3
			l7.6-7.6c0.1-0.1,0.1-0.1,0.2-0.1l2.6,0.3c0,0,0,0,0,0c0.3,0,1,0,1.3-0.3l4.4-4.4c0.3-0.3,0-0.7-0.3-0.7l-3.9-0.3
			c-0.1,0-0.2-0.1-0.2-0.2l-0.3-4c0-0.1-0.2-0.3-0.5-0.3 M56.3,0C44.8,0,35.6,9.5,35.6,20.7c0,11.5,9.2,21,20.7,21S77,32.2,77,20.7
			c0-3.7-1-7.5-3.1-10.5l-2,2c-0.3,0.3-1,0.7-1.4,0.7c1,2.4,1.7,5.1,1.7,7.8c0,9.1-7.1,16.3-16,16.3c-9.2,0-16.3-7.1-16.3-16.3
			c0-8.8,7.1-15.9,16.3-15.9c2.7,0,5.4,0.7,7.8,2c0-0.7,0.3-1,0.7-1.4L67.2,3C63.9,1.1,60.1,0,56.3,0"/>
	</g>
	<g>
		<path  d="M48.9,51.9c-2.3,1.8-5.7,4.4-10.7,8.3c-1.7,1.3-5.1,4.5-7.5,4.5h-0.1c-2.4,0-5.8-3.2-7.5-4.5
			c-4.9-3.7-8.1-6.3-10.5-8.1c-0.5-0.4-1.2-0.3-1.6,0.2l-1.3,1.8c-0.4,0.5-0.3,1.1,0.2,1.5c3.4,2.6,10.9,8.4,11.3,8.8
			c2.4,2,5.7,4.7,9.3,4.7h0.1c3.6,0,6.8-2.7,9.3-4.7c0.3-0.3,8.2-6.3,11.6-9c0.4-0.4,0.5-1,0.2-1.5l-1.3-1.7
			C50.1,51.6,49.4,51.5,48.9,51.9z"/>
		<path  d="M58.7,45.8c-0.6,0-1.2,0-1.8-0.1v30.9h0c0,0.6-0.5,1.1-1.1,1.1H5.5c-0.6,0-1.1-0.5-1.1-1.1V44.9
			c3.4-3.2,2.9-2.9,18.7-15.2c1.7-1.3,5.1-4.5,7.5-4.5h0.1c0.4,0,0.9,0.1,1.3,0.3c-0.4-1.5-0.7-3-0.9-4.6c-0.2,0-0.3,0-0.5,0h-0.1
			c-3.6,0-6.9,2.7-9.3,4.7c-4.9,4-12.9,9.6-19.9,16.1c-0.9,0.8-1.4,2-1.4,3.2v31.7c0,3,2.5,5.5,5.5,5.5h50.4c3,0,5.5-2.5,5.5-5.5
			v-31C60.4,45.8,59.6,45.8,58.7,45.8z"/>
	</g>
</g>
</svg>
